# xmcd
#
# Track frame offsets:
#	150
#	17347
#	35760
#	56642
#	81284
#	100891
#	120708
#	140652
#	158723
#	180968
#	203469
#	221866
#	247961
#
# Disc length: 3524 seconds
#
# Revision: 0
# Processed by: cddbd v1.4PL0 Copyright (c) Steve Scherf et al.
# Submitted via: audiograbber 1.80
#
DISCID=ab0dc20d
DTITLE=Randy McAllister - Double Rectified Bust Head
DYEAR=1900
DGENRE=
TTITLE0=Texas Thang
TTITLE1=He Was Him
TTITLE2=Baseball Bat
TTITLE3=Blues Colored Soul
TTITLE4=Ain't Like The Movies
TTITLE5=Nasty Little Day Dreams
TTITLE6=Out-Classed
TTITLE7='S' On My Chest
TTITLE8=Who's The Parent, Who's The Child
TTITLE9=$127.00 Sandwich
TTITLE10=What Make A Man
TTITLE11=The Last Goodbye
TTITLE12=Invisible Man
EXTD=
EXTT0=
EXTT1=
EXTT2=
EXTT3=
EXTT4=
EXTT5=
EXTT6=
EXTT7=
EXTT8=
EXTT9=
EXTT10=
EXTT11=
EXTT12=
PLAYORDER=
